<svg xmlns="http://www.w3.org/2000/svg" viewBox="0 0 24 24">
  <path d="M7.5 5.5C5.56 5.5 4 7.06 4 9C4 10.94 5.56 12.5 7.5 12.5C9.44 12.5 11 10.94 11 9C11 7.06 9.44 5.5 7.5 5.5M7.5 7.5C8.33 7.5 9 8.17 9 9C9 9.83 8.33 10.5 7.5 10.5C6.67 10.5 6 9.83 6 9C6 8.17 6.67 7.5 7.5 7.5M11 15V18H13V15H11M17 15V18H19V15H17M11 19V22H13V19H11M17 19V22H19V19H17M15 10.5V14H16.5V10.5H15M18.5 10.5V14H20V10.5H18.5M21.7 13.37L20.09 15.37L21.46 16.74L23.05 14.74L21.7 13.37M21.7 21.37L20.09 19.37L21.46 18L23.05 20L21.7 21.37M14.79 9.11L20.89 3H19.39L13.39 9.11L14.79 9.11Z"/>
</svg>
